# xmcd
#
# Track frame offsets:
#	182
#	14867
#	31985
#	47757
#	68187
#	86957
#	119602
#	137910
#	153902
#	173887
#	187312
#	202380
#
# Disc length: 3134 seconds
#
# Revision: 0
# Processed by: cddbd v1.4PL0 Copyright (c) Steve Scherf et al.
# Submitted via: dBpowerAMP V4.0
#
DISCID=be0c3c0c
DTITLE=Adamo - Olympia 77
DYEAR=1977
DGENRE=
TTITLE0=Tombe la neige
TTITLE1=Miroir magique
TTITLE2=Inch Allah
TTITLE3=Il n'y a pas d'amour sans peine
TTITLE4=Le cirque d'Antony
TTITLE5=La colombe
TTITLE6=Toujours la meme histoire
TTITLE7=Louise
TTITLE8=Si tu etais
TTITLE9=Rose de lune
TTITLE10=Mes mains sur tes hanches
TTITLE11=Manuel
EXTD=
EXTT0=
EXTT1=
EXTT2=
EXTT3=
EXTT4=
EXTT5=
EXTT6=
EXTT7=
EXTT8=
EXTT9=
EXTT10=
EXTT11=
PLAYORDER=
